<?xml version="1.0" standalone="no"?>
<!DOCTYPE svg PUBLIC "-//W3C//DTD SVG 20010904//EN"
 "http://www.w3.org/TR/2001/REC-SVG-20010904/DTD/svg10.dtd">
<svg version="1.0" xmlns="http://www.w3.org/2000/svg"
 width="195" height="37" viewBox="0 0 195 37">

<g clip-path="url(#clip0)"
fill="#F50057" stroke="none">
<path d="M928 2200 c-77 -13 -159 -40 -236 -77 l-74 -35 7 -51 c3 -29 15 -112
26 -185 10 -74 19 -140 19 -148 0 -28 16 -12 59 58 60 97 205 289 280 370 33
36 61 69 61 72 0 8 -84 6 -142 -4z m-168 -260 c11 -11 20 -27 20 -35 0 -18
-35 -55 -53 -55 -22 0 -57 31 -57 51 0 23 34 59 55 59 8 0 24 -9 35 -20z"/>
<path d="M1092 2120 c-136 -146 -317 -390 -377 -510 l-22 -45 42 -210 c68
-338 120 -515 196 -666 36 -73 40 -77 76 -81 65 -8 205 10 288 36 232 74 431
271 511 507 100 295 20 616 -207 836 -94 90 -252 177 -359 198 -19 3 -43 9
-53 12 -14 3 -39 -17 -95 -77z m479 -372 l59 -52 0 -283 0 -282 -24 -28 -24
-28 -237 0 -237 0 -24 28 -24 28 0 305 0 306 29 29 29 29 197 0 196 0 60 -52z
m-521 -123 c0 -12 -14 -15 -70 -15 -102 0 -98 12 -97 -323 2 -235 4 -279 17
-287 8 -5 108 -10 222 -10 220 0 238 4 238 51 0 11 7 19 16 19 13 0 15 -7 10
-32 -12 -65 -23 -68 -265 -68 -235 1 -245 3 -260 57 -5 17 -7 153 -4 304 l4
274 25 23 c21 18 37 22 95 22 55 0 69 -3 69 -15z"/>
<path d="M1104 1756 c-18 -14 -19 -31 -22 -308 -3 -287 -3 -295 18 -321 l21
-27 223 0 c176 0 226 3 242 14 18 14 19 29 19 278 0 256 -1 263 -20 264 -63 1
-95 32 -95 89 l0 25 -183 0 c-142 0 -188 -3 -203 -14z m106 -73 c0 -7 -10 -13
-22 -13 -22 -1 -21 -2 5 -16 35 -19 35 -53 2 -82 -24 -21 -27 -21 -51 -6 -31
21 -26 40 10 37 31 -2 35 13 6 22 -11 3 -25 15 -30 26 -9 16 -6 24 16 44 22
20 29 22 45 12 10 -6 19 -17 19 -24z m270 -8 c0 -12 -20 -15 -119 -15 -109 0
-142 6 -124 24 3 3 60 6 125 6 98 0 118 -3 118 -15z m78 -47 c-4 -10 -45 -14
-153 -16 -153 -3 -181 0 -170 18 10 16 328 13 323 -2z m0 -55 c3 -10 -33 -13
-157 -13 -146 0 -182 5 -164 24 4 4 76 5 162 4 113 -2 155 -6 159 -15z m2 -53
c0 -6 -78 -10 -215 -10 -137 0 -215 4 -215 10 0 6 78 10 215 10 137 0 215 -4
215 -10z m-3 -52 c-3 -10 -53 -13 -202 -14 -110 -1 -205 0 -212 3 -43 17 11
23 203 23 168 0 215 -3 211 -12z m1 -43 c7 -3 12 -24 12 -59 0 -46 -4 -57 -21
-66 -27 -15 -404 -10 -419 6 -17 17 -15 105 2 118 15 11 395 11 426 1z m2
-165 c0 -6 -78 -10 -215 -10 -137 0 -215 4 -215 10 0 6 78 10 215 10 137 0
215 -4 215 -10z m-2 -52 c-4 -12 -26 -13 -361 -9 -49 1 -76 5 -72 11 10 16
438 13 433 -2z m2 -53 c0 -13 -30 -15 -214 -15 -195 0 -238 5 -219 24 3 3 102
6 220 6 183 0 213 -2 213 -15z"/>
<path d="M1144 1396 c-3 -8 -4 -27 -2 -43 l3 -28 200 0 c186 0 200 1 203 18 2
10 1 29 -2 43 l-6 24 -196 0 c-159 0 -196 -3 -200 -14z"/>
<path d="M1520 1727 c0 -31 18 -47 54 -47 l30 0 -34 35 c-40 41 -50 43 -50 12z"/>
<path d="M550 2035 c-107 -78 -211 -229 -263 -379 -30 -86 -32 -98 -32 -241 0
-113 4 -166 18 -215 20 -75 99 -240 126 -264 18 -16 19 -14 31 66 26 177 93
388 175 547 l44 84 -25 166 c-13 91 -28 188 -32 214 l-7 48 -35 -26z m-25
-225 c0 -18 -6 -26 -23 -28 -13 -2 -25 3 -28 12 -10 26 4 48 28 44 17 -2 23
-10 23 -28z m68 -138 c23 -20 22 -51 -5 -79 -25 -27 -54 -29 -80 -6 -27 24
-23 68 8 92 26 21 46 19 77 -7z m-179 -445 c14 -21 -13 -51 -37 -41 -20 7 -22
35 -5 52 15 15 28 11 42 -11z"/>
<path d="M2821 1589 c-29 -77 -134 -340 -147 -370 -9 -20 -26 -42 -38 -47 -18
-9 -14 -11 27 -11 27 -1 47 4 47 10 0 5 -5 7 -10 4 -19 -12 -23 26 -7 60 16
33 17 33 88 37 63 3 73 1 85 -17 21 -33 28 -76 14 -85 -7 -4 31 -8 85 -9 65
-1 95 2 90 9 -3 5 -13 10 -21 10 -8 0 -19 10 -23 23 -73 183 -162 392 -170
400 -7 7 -13 3 -20 -14z m3 -228 c14 -36 26 -66 26 -68 0 -2 -30 -3 -66 -3
-75 0 -73 -5 -27 97 14 32 28 52 33 47 4 -5 20 -38 34 -73z"/>
<path d="M3228 1592 c-40 -24 -61 -75 -55 -131 6 -56 37 -85 134 -125 73 -30
113 -60 113 -86 0 -22 -28 -60 -54 -70 -19 -8 -19 -9 -2 -9 31 -1 83 37 100
73 21 45 20 84 -4 123 -24 40 -51 58 -126 84 -85 29 -104 44 -104 79 0 62 64
88 136 54 35 -17 50 -37 65 -83 5 -19 8 -6 8 43 1 65 0 68 -16 53 -16 -13 -21
-14 -43 -2 -35 20 -119 18 -152 -3z"/>
<path d="M2127 1593 c-2 -5 -5 -37 -5 -73 -1 -63 -1 -64 13 -35 8 17 14 35 15
42 0 6 14 23 31 37 36 30 78 35 80 9 4 -71 5 -334 2 -360 -4 -23 -11 -33 -27
-36 -11 -2 26 -4 84 -4 58 0 95 2 83 4 -23 4 -23 5 -23 209 l0 204 28 0 c35 0
76 -41 96 -95 l15 -40 0 73 1 72 -194 0 c-107 0 -197 -3 -199 -7z"/>
<path d="M3594 1586 c-3 -7 -4 -40 -2 -72 l3 -59 14 43 c17 49 61 92 97 92 27
0 24 20 26 -245 0 -165 0 -163 -24 -168 -13 -2 24 -4 82 -4 58 0 95 2 83 4
-23 4 -23 5 -23 209 l0 204 28 0 c36 0 79 -43 95 -96 l12 -39 3 59 c2 32 1 65
-2 72 -8 20 -384 20 -392 0z"/>
<path d="M4127 1593 c28 -5 29 -11 25 -230 -3 -178 -3 -182 -25 -186 -12 -2
25 -4 83 -4 58 0 95 2 83 4 -22 4 -23 8 -23 109 l0 104 36 0 c19 0 44 -4 54
-10 21 -11 40 -60 40 -102 0 -83 57 -131 129 -109 21 6 43 17 48 24 15 19 23
47 14 47 -5 0 -11 -9 -14 -21 -4 -15 -12 -20 -29 -17 -18 2 -25 12 -31 43 -22
104 -27 114 -64 133 l-35 19 48 24 c79 39 86 108 15 156 -32 22 -42 23 -205
22 -94 -1 -161 -4 -149 -6z m262 -29 c14 -18 21 -41 21 -69 0 -65 -29 -95 -91
-95 l-49 0 0 95 0 95 49 0 c42 0 53 -4 70 -26z"/>
<path d="M4733 1593 l27 -4 0 -204 c0 -203 0 -204 -22 -208 -13 -2 24 -4 82
-4 58 0 93 2 78 4 l-28 4 0 204 0 204 28 4 c15 2 -22 4 -83 4 -60 0 -98 -2
-82 -4z"/>
<path d="M5048 1593 c24 -5 44 -33 112 -158 l43 -81 -54 -86 c-49 -79 -57 -87
-89 -91 -19 -2 -1 -4 40 -4 41 0 63 2 48 4 -16 2 -28 10 -28 16 0 7 20 43 44
81 l44 69 25 -39 c32 -52 57 -101 57 -113 0 -5 -10 -12 -22 -14 -13 -2 31 -4
97 -4 66 0 109 2 95 4 -29 4 -30 6 -112 156 l-60 109 44 71 c34 57 49 73 73
78 20 4 8 7 -35 6 -36 0 -53 -2 -37 -4 15 -2 27 -6 27 -9 0 -3 -17 -32 -38
-65 -42 -66 -40 -67 -85 13 -33 56 -33 56 -4 61 12 2 -30 4 -93 4 -63 0 -105
-2 -92 -4z"/>
<path d="M633 1453 c-74 -164 -136 -397 -148 -552 l-6 -66 58 -48 c71 -58 237
-141 316 -158 31 -7 59 -10 62 -7 3 3 -10 38 -29 79 -68 147 -130 365 -186
654 -17 87 -32 161 -34 162 -2 2 -17 -27 -33 -64z m40 -27 c8 -20 -20 -43 -35
-28 -14 14 -3 42 16 42 7 0 16 -6 19 -14z m169 -692 c11 -23 10 -29 -11 -45
-21 -17 -26 -18 -45 -6 -27 18 -31 40 -11 61 24 24 54 20 67 -10z"/>
<path d="M3160 1236 c0 -65 6 -76 26 -56 7 7 24 6 53 -5 24 -8 58 -15 75 -14
24 1 19 3 -24 14 -58 14 -110 58 -110 95 0 10 -4 22 -10 25 -6 4 -10 -18 -10
-59z"/>
</g>
</svg>
