<?xml version="1.0" standalone="no"?>
<!DOCTYPE svg PUBLIC "-//W3C//DTD SVG 20010904//EN"
 "http://www.w3.org/TR/2001/REC-SVG-20010904/DTD/svg10.dtd">
<svg version="1.0" xmlns="http://www.w3.org/2000/svg"
 width="512.000000pt" height="246.000000pt" viewBox="0 0 512.000000 246.000000"
 preserveAspectRatio="xMidYMid meet">

<g transform="translate(0.000000,246.000000) scale(0.100000,-0.100000)"
fill="#F50057" stroke="none">
<path d="M785 1974 c-80 -17 -212 -76 -221 -98 -5 -13 10 -148 34 -310 l7 -49
88 129 c85 124 131 185 225 294 l44 50 -54 -1 c-29 0 -84 -7 -123 -15z m-105
-224 c11 -11 20 -23 20 -28 0 -17 -32 -52 -47 -52 -21 0 -53 29 -53 47 0 15
35 53 50 53 6 0 19 -9 30 -20z"/>
<path d="M982 1913 c-138 -154 -228 -274 -308 -407 l-51 -86 28 -152 c53 -287
125 -534 199 -678 l20 -40 88 0 c303 0 579 209 673 510 34 107 34 312 2 415
-47 146 -161 304 -276 383 -88 61 -238 122 -300 122 -8 0 -41 -30 -75 -67z
m434 -340 l54 -47 0 -253 0 -254 -25 -24 c-22 -23 -32 -25 -114 -25 -77 0 -89
-2 -85 -15 10 -25 -16 -72 -45 -85 -19 -7 -89 -10 -209 -8 -160 3 -182 5 -201
22 -20 19 -21 27 -21 287 l0 268 27 21 c23 18 38 21 90 18 l63 -3 0 48 c0 38
5 53 25 72 24 25 26 25 205 25 l181 0 55 -47z"/>
<path d="M994 1586 c-18 -13 -19 -30 -22 -268 -3 -266 -1 -287 24 -312 22 -22
400 -24 430 -2 18 13 19 30 22 249 l3 234 -40 7 c-45 7 -71 35 -71 78 l0 28
-163 0 c-125 0 -168 -3 -183 -14z m96 -66 c0 -5 -10 -10 -22 -13 -22 -3 -21
-4 7 -16 20 -9 79 -12 178 -11 118 1 148 -2 145 -12 -4 -10 -40 -13 -151 -13
-122 0 -148 -3 -152 -15 -9 -27 -42 -42 -65 -28 -29 19 -26 42 5 34 14 -4 25
-3 25 2 0 5 -11 14 -25 20 -31 14 -33 46 -3 66 21 15 58 7 58 -14z m240 -10
c0 -6 -43 -10 -110 -10 -67 0 -110 4 -110 10 0 6 43 10 110 10 67 0 110 -4
110 -10z m70 -90 c0 -6 -55 -10 -145 -10 -90 0 -145 4 -145 10 0 6 55 10 145
10 90 0 145 -4 145 -10z m0 -50 c0 -6 -72 -10 -195 -10 -123 0 -195 4 -195 10
0 6 72 10 195 10 123 0 195 -4 195 -10z m0 -45 c0 -13 -28 -15 -189 -15 -172
0 -213 5 -194 24 3 3 91 6 195 6 160 0 188 -2 188 -15z m-2 -40 c9 -3 12 -21
10 -57 l-3 -53 -189 -3 c-130 -2 -193 1 -202 9 -18 15 -18 83 -1 101 10 10 54
12 193 10 98 -1 185 -5 192 -7z m2 -145 c0 -6 -72 -10 -195 -10 -123 0 -195 4
-195 10 0 6 72 10 195 10 123 0 195 -4 195 -10z m0 -50 c0 -6 -72 -10 -195
-10 -123 0 -195 4 -195 10 0 6 72 10 195 10 123 0 195 -4 195 -10z m-2 -47 c3
-10 -40 -13 -192 -13 -108 0 -196 4 -196 8 0 21 26 24 199 20 136 -2 185 -6
189 -15z"/>
<path d="M1030 1230 l0 -40 178 2 177 3 0 35 0 35 -177 3 -178 2 0 -40z"/>
<path d="M1370 1557 c0 -28 17 -41 45 -35 13 2 10 9 -14 32 l-31 30 0 -27z"/>
<path d="M882 1452 c-52 -2 -64 -7 -75 -25 -10 -16 -14 -85 -16 -255 -2 -200
0 -237 13 -258 l16 -24 183 0 c100 0 188 4 195 8 7 5 16 23 21 40 l10 32 -114
0 c-168 0 -159 -15 -165 262 l-5 223 -63 -3z"/>
<path d="M476 1817 c-198 -169 -294 -442 -242 -688 19 -86 69 -206 109 -261
l32 -43 3 35 c12 141 82 370 158 522 l44 88 -26 192 c-14 106 -27 194 -28 195
-1 1 -24 -17 -50 -40z m-6 -173 c11 -12 11 -18 -2 -30 -16 -16 -48 -9 -48 10
0 13 20 36 31 36 4 0 12 -7 19 -16z m60 -134 c24 -24 25 -38 4 -68 -17 -24
-62 -30 -82 -10 -29 29 -1 98 40 98 10 0 27 -9 38 -20z m-156 -399 c10 -16 -5
-41 -24 -41 -23 0 -34 16 -26 35 6 16 42 20 50 6z"/>
<path d="M1928 1443 c-15 -4 -18 -15 -17 -66 l0 -62 15 39 c17 47 41 76 62 76
9 0 13 2 11 4 -8 7 -55 13 -71 9z"/>
<path d="M2200 1439 c-19 -3 -28 -7 -19 -8 22 -2 57 -41 70 -79 16 -47 22 -33
14 31 -8 61 -14 66 -65 56z"/>
<path d="M2496 1328 c-95 -240 -107 -267 -124 -271 -9 -3 3 -5 28 -5 25 0 37
2 28 5 -22 6 -23 25 -3 64 16 29 18 30 83 27 l66 -3 15 -38 c12 -33 12 -40 0
-48 -9 -5 19 -8 76 -8 50 1 82 3 72 6 -20 5 -32 30 -107 218 -59 147 -71 175
-79 175 -4 0 -28 -55 -55 -122z m42 -97 c12 -29 22 -58 22 -62 0 -5 -25 -9
-55 -9 -46 0 -55 3 -55 18 0 27 50 126 59 116 4 -5 17 -33 29 -63z"/>
<path d="M2891 1424 c-40 -36 -51 -95 -27 -142 12 -24 38 -41 111 -76 93 -45
95 -46 95 -80 0 -25 -7 -39 -22 -50 -30 -21 -4 -20 28 0 69 46 70 152 2 196
-13 8 -50 25 -83 38 -95 37 -112 61 -79 108 11 17 25 22 57 22 50 0 84 -21
103 -64 l13 -31 1 45 c0 40 -3 45 -22 47 -13 1 -50 5 -84 9 -58 6 -63 5 -93
-22z"/>
<path d="M4600 1439 c-30 -3 -49 -6 -43 -7 7 -1 28 -32 48 -69 19 -38 44 -84
56 -104 l21 -36 -27 -44 -26 -44 30 35 c16 19 32 33 34 30 15 -17 67 -119 67
-133 0 -15 12 -17 88 -16 48 1 77 4 65 7 -23 7 -69 76 -124 185 -25 49 -28 61
-18 80 11 19 10 20 -3 10 -12 -11 -18 -10 -30 5 -23 26 -50 81 -44 91 8 13
-31 17 -94 10z"/>
<path d="M2030 1425 c8 -10 11 -64 8 -195 l-3 -180 55 0 55 0 0 195 0 195 -64
0 c-54 0 -62 -2 -51 -15z"/>
<path d="M3230 1378 l1 -63 27 55 c19 38 35 57 52 61 18 5 9 7 -27 8 l-53 1 0
-62z"/>
<path d="M3348 1431 c10 -6 13 -49 10 -194 l-3 -187 55 0 55 0 0 195 0 195
-65 0 c-39 0 -60 -4 -52 -9z"/>
<path d="M3519 1427 c14 -6 34 -33 47 -62 l23 -50 0 63 1 62 -47 -1 c-44 0
-46 -1 -24 -12z"/>
<path d="M3735 1245 l0 -195 53 0 52 0 0 100 0 100 45 0 c53 0 63 -13 75 -104
10 -69 33 -96 82 -96 44 0 87 27 88 54 0 6 -6 1 -14 -10 -23 -30 -50 -7 -58
51 -9 65 -13 72 -49 94 l-32 19 41 21 c41 21 52 37 52 76 0 57 -39 85 -117 84
-38 0 -43 -2 -26 -9 46 -19 58 -98 22 -144 -17 -21 -29 -26 -65 -26 l-44 0 0
90 0 90 -52 0 -53 0 0 -195z"/>
<path d="M4277 1248 l2 -193 53 -3 53 -3 0 196 0 195 -55 0 -55 0 2 -192z"/>
<path d="M4813 1434 c3 -4 -3 -24 -14 -45 -11 -22 -17 -39 -14 -39 2 0 11 13
20 29 8 16 22 36 30 45 15 15 15 16 -6 16 -12 0 -20 -3 -16 -6z"/>
<path d="M590 1368 c0 -3 -7 -21 -15 -41 -14 -33 -13 -35 4 -30 22 6 35 -21
17 -36 -10 -8 -17 -7 -26 4 -12 14 -17 8 -37 -42 -42 -102 -84 -276 -99 -401
-6 -60 -6 -61 30 -93 94 -82 225 -149 323 -165 l43 -7 -34 74 c-60 131 -118
336 -165 578 -16 84 -32 155 -35 158 -3 4 -6 4 -6 1z m164 -700 c15 -24 -4
-53 -34 -53 -35 0 -48 29 -25 55 21 24 43 23 59 -2z"/>
<path d="M2840 1116 c0 -30 5 -58 10 -61 6 -3 10 -1 10 6 0 8 12 9 38 4 l37
-7 -29 23 c-16 12 -35 37 -42 56 -8 18 -16 33 -19 33 -3 0 -5 -24 -5 -54z"/>
<path d="M4605 1100 c-8 -16 -23 -34 -32 -39 -14 -8 -8 -10 27 -10 37 0 41 2
22 9 -22 9 -22 11 -7 40 8 16 13 30 11 30 -3 0 -12 -13 -21 -30z"/>
<path d="M2958 1053 c12 -2 30 -2 40 0 9 3 -1 5 -23 4 -22 0 -30 -2 -17 -4z"/>
</g>
</svg>
